<mxfile host="app.diagrams.net" agent="Mozilla/5.0 (Windows NT 10.0; Win64; x64) AppleWebKit/537.36 (KHTML, like Gecko) Chrome/138.0.0.0 Safari/537.36" version="28.0.7">
  <diagram name="Page-1" id="PLF1nOXQFvGNPAgczX7s">
    <mxGraphModel dx="1489" dy="803" grid="1" gridSize="10" guides="1" tooltips="1" connect="1" arrows="1" fold="1" page="1" pageScale="1" pageWidth="850" pageHeight="1100" math="0" shadow="0">
      <root>
        <mxCell id="0" />
        <mxCell id="1" parent="0" />
        <mxCell id="VrAde1N77AtWidj2RCb_-28" style="edgeStyle=orthogonalEdgeStyle;rounded=0;orthogonalLoop=1;jettySize=auto;html=1;exitX=0.5;exitY=1;exitDx=0;exitDy=0;" edge="1" parent="1" source="VrAde1N77AtWidj2RCb_-1">
          <mxGeometry relative="1" as="geometry">
            <mxPoint x="410" y="139.9999999999999" as="targetPoint" />
          </mxGeometry>
        </mxCell>
        <mxCell id="VrAde1N77AtWidj2RCb_-1" value="&lt;b&gt;&lt;font style=&quot;font-size: 19px;&quot;&gt;plan&lt;/font&gt;&lt;/b&gt;" style="ellipse;whiteSpace=wrap;html=1;" vertex="1" parent="1">
          <mxGeometry x="350" y="10" width="120" height="80" as="geometry" />
        </mxCell>
        <mxCell id="VrAde1N77AtWidj2RCb_-29" style="edgeStyle=orthogonalEdgeStyle;rounded=0;orthogonalLoop=1;jettySize=auto;html=1;entryX=0.5;entryY=0;entryDx=0;entryDy=0;" edge="1" parent="1" target="VrAde1N77AtWidj2RCb_-25">
          <mxGeometry relative="1" as="geometry">
            <mxPoint x="410" y="219.9999999999999" as="sourcePoint" />
          </mxGeometry>
        </mxCell>
        <mxCell id="VrAde1N77AtWidj2RCb_-30" value="" style="edgeStyle=orthogonalEdgeStyle;rounded=0;orthogonalLoop=1;jettySize=auto;html=1;" edge="1" parent="1" source="VrAde1N77AtWidj2RCb_-25" target="VrAde1N77AtWidj2RCb_-26">
          <mxGeometry relative="1" as="geometry" />
        </mxCell>
        <mxCell id="VrAde1N77AtWidj2RCb_-25" value="&lt;b&gt;&lt;font style=&quot;font-size: 19px;&quot;&gt;Bulid&lt;/font&gt;&lt;/b&gt;" style="ellipse;whiteSpace=wrap;html=1;" vertex="1" parent="1">
          <mxGeometry x="350" y="280" width="120" height="80" as="geometry" />
        </mxCell>
        <mxCell id="VrAde1N77AtWidj2RCb_-31" style="edgeStyle=orthogonalEdgeStyle;rounded=0;orthogonalLoop=1;jettySize=auto;html=1;entryX=0.5;entryY=0;entryDx=0;entryDy=0;" edge="1" parent="1" source="VrAde1N77AtWidj2RCb_-26" target="VrAde1N77AtWidj2RCb_-27">
          <mxGeometry relative="1" as="geometry" />
        </mxCell>
        <mxCell id="VrAde1N77AtWidj2RCb_-26" value="&lt;b&gt;&lt;font style=&quot;font-size: 19px;&quot;&gt;Test&lt;/font&gt;&lt;/b&gt;" style="ellipse;whiteSpace=wrap;html=1;" vertex="1" parent="1">
          <mxGeometry x="350" y="410" width="120" height="80" as="geometry" />
        </mxCell>
        <mxCell id="VrAde1N77AtWidj2RCb_-27" value="&lt;b&gt;&lt;font style=&quot;font-size: 19px;&quot;&gt;Release&lt;/font&gt;&lt;/b&gt;" style="ellipse;whiteSpace=wrap;html=1;" vertex="1" parent="1">
          <mxGeometry x="350" y="560" width="120" height="80" as="geometry" />
        </mxCell>
        <mxCell id="VrAde1N77AtWidj2RCb_-32" value="&lt;font style=&quot;font-size: 19px;&quot;&gt;&lt;b&gt;Develop&lt;/b&gt;&lt;/font&gt;" style="ellipse;whiteSpace=wrap;html=1;" vertex="1" parent="1">
          <mxGeometry x="350" y="140" width="120" height="80" as="geometry" />
        </mxCell>
      </root>
    </mxGraphModel>
  </diagram>
</mxfile>
